{
    "accessors": {
        "accessor_102": {
            "bufferView": "bufferView_158",
            "byteOffset": 288,
            "byteStride": 0,
            "componentType": 5123,
            "count": 72,
            "type": "SCALAR"
        },
        "accessor_104": {
            "bufferView": "bufferView_159",
            "byteOffset": 3072,
            "byteStride": 12,
            "componentType": 5126,
            "count": 48,
            "max": [
                3.69273,
                -12.4811,
                24.3548
            ],
            "min": [
                -10.6137,
                -18.127,
                1.03781
            ],
            "type": "VEC3"
        },
        "accessor_106": {
            "bufferView": "bufferView_159",
            "byteOffset": 3648,
            "byteStride": 12,
            "componentType": 5126,
            "count": 48,
            "max": [
                0.999543,
                0.999543,
                1
            ],
            "min": [
                -0.999543,
                -0.999543,
                -1
            ],
            "type": "VEC3"
        },
        "accessor_108": {
            "bufferView": "bufferView_159",
            "byteOffset": 4224,
            "byteStride": 8,
            "componentType": 5126,
            "count": 48,
            "max": [
                0.968827,
                0.689022
            ],
            "min": [
                0.594703,
                0.00300157
            ],
            "type": "VEC2"
        },
        "accessor_118": {
            "bufferView": "bufferView_158",
            "byteOffset": 576,
            "byteStride": 0,
            "componentType": 5123,
            "count": 2,
            "type": "SCALAR"
        },
        "accessor_120": {
            "bufferView": "bufferView_159",
            "byteOffset": 6144,
            "byteStride": 12,
            "componentType": 5126,
            "count": 2,
            "max": [
                18.8564,
                -52.1572,
                0
            ],
            "min": [
                -14.1132,
                -53.1548,
                0
            ],
            "type": "VEC3"
        },
        "accessor_130": {
            "bufferView": "bufferView_158",
            "byteOffset": 580,
            "byteStride": 0,
            "componentType": 5123,
            "count": 2,
            "type": "SCALAR"
        },
        "accessor_132": {
            "bufferView": "bufferView_159",
            "byteOffset": 6168,
            "byteStride": 12,
            "componentType": 5126,
            "count": 2,
            "max": [
                19.884,
                -19.1945,
                0
            ],
            "min": [
                18.8564,
                -53.1548,
                0
            ],
            "type": "VEC3"
        },
        "accessor_142": {
            "bufferView": "bufferView_158",
            "byteOffset": 584,
            "byteStride": 0,
            "componentType": 5123,
            "count": 2,
            "type": "SCALAR"
        },
        "accessor_144": {
            "bufferView": "bufferView_159",
            "byteOffset": 6192,
            "byteStride": 12,
            "componentType": 5126,
            "count": 2,
            "max": [
                19.884,
                -18.1969,
                0
            ],
            "min": [
                -13.0857,
                -19.1945,
                0
            ],
            "type": "VEC3"
        },
        "accessor_154": {
            "bufferView": "bufferView_158",
            "byteOffset": 588,
            "byteStride": 0,
            "componentType": 5123,
            "count": 2,
            "type": "SCALAR"
        },
        "accessor_156": {
            "bufferView": "bufferView_159",
            "byteOffset": 6216,
            "byteStride": 12,
            "componentType": 5126,
            "count": 2,
            "max": [
                -13.0857,
                -18.1969,
                0
            ],
            "min": [
                -14.1132,
                -52.1572,
                0
            ],
            "type": "VEC3"
        },
        "accessor_21": {
            "bufferView": "bufferView_158",
            "byteOffset": 432,
            "byteStride": 0,
            "componentType": 5123,
            "count": 72,
            "type": "SCALAR"
        },
        "accessor_23": {
            "bufferView": "bufferView_159",
            "byteOffset": 4608,
            "byteStride": 12,
            "componentType": 5126,
            "count": 48,
            "max": [
                19.4776,
                -18.1969,
                24.5139
            ],
            "min": [
                -14.5196,
                -53.1548,
                0
            ],
            "type": "VEC3"
        },
        "accessor_25": {
            "bufferView": "bufferView_159",
            "byteOffset": 5184,
            "byteStride": 12,
            "componentType": 5126,
            "count": 48,
            "max": [
                0.999543,
                0.999543,
                1
            ],
            "min": [
                -0.999543,
                -0.999543,
                -1
            ],
            "type": "VEC3"
        },
        "accessor_27": {
            "bufferView": "bufferView_159",
            "byteOffset": 5760,
            "byteStride": 8,
            "componentType": 5126,
            "count": 48,
            "max": [
                0.91646,
                0.665894
            ],
            "min": [
                0.00250845,
                0.00195307
            ],
            "type": "VEC2"
        },
        "accessor_48": {
            "bufferView": "bufferView_158",
            "byteOffset": 0,
            "byteStride": 0,
            "componentType": 5123,
            "count": 72,
            "type": "SCALAR"
        },
        "accessor_50": {
            "bufferView": "bufferView_159",
            "byteOffset": 0,
            "byteStride": 12,
            "componentType": 5126,
            "count": 48,
            "max": [
                10.1046,
                -10.2519,
                27.2557
            ],
            "min": [
                -4.20184,
                -15.8977,
                3.93873
            ],
            "type": "VEC3"
        },
        "accessor_52": {
            "bufferView": "bufferView_159",
            "byteOffset": 576,
            "byteStride": 12,
            "componentType": 5126,
            "count": 48,
            "max": [
                0.999543,
                0.999543,
                1
            ],
            "min": [
                -0.999543,
                -0.999543,
                -1
            ],
            "type": "VEC3"
        },
        "accessor_54": {
            "bufferView": "bufferView_159",
            "byteOffset": 1152,
            "byteStride": 8,
            "componentType": 5126,
            "count": 48,
            "max": [
                0.968827,
                0.689022
            ],
            "min": [
                0.594703,
                0.00300157
            ],
            "type": "VEC2"
        },
        "accessor_75": {
            "bufferView": "bufferView_158",
            "byteOffset": 144,
            "byteStride": 0,
            "componentType": 5123,
            "count": 72,
            "type": "SCALAR"
        },
        "accessor_77": {
            "bufferView": "bufferView_159",
            "byteOffset": 1536,
            "byteStride": 12,
            "componentType": 5126,
            "count": 48,
            "max": [
                13.0657,
                -20.4262,
                21.613
            ],
            "min": [
                -20.9315,
                -55.384,
                -2.90093
            ],
            "type": "VEC3"
        },
        "accessor_79": {
            "bufferView": "bufferView_159",
            "byteOffset": 2112,
            "byteStride": 12,
            "componentType": 5126,
            "count": 48,
            "max": [
                0.999543,
                0.999543,
                1
            ],
            "min": [
                -0.999543,
                -0.999543,
                -1
            ],
            "type": "VEC3"
        },
        "accessor_81": {
            "bufferView": "bufferView_159",
            "byteOffset": 2688,
            "byteStride": 8,
            "componentType": 5126,
            "count": 48,
            "max": [
                0.91646,
                0.665894
            ],
            "min": [
                0.00250845,
                0.00195307
            ],
            "type": "VEC2"
        }
    },
    "animations": {},
    "asset": {
        "generator": "collada2gltf@GITDIR-NOTFOUND",
        "premultipliedAlpha": true,
        "profile": {
            "api": "WebGL",
            "version": "1.0.2"
        },
        "version": 1
    },
    "bufferViews": {
        "bufferView_158": {
            "buffer": "工厂4",
            "byteLength": 592,
            "byteOffset": 0,
            "target": 34963
        },
        "bufferView_159": {
            "buffer": "工厂4",
            "byteLength": 6240,
            "byteOffset": 592,
            "target": 34962
        }
    },
    "buffers": {
        "工厂4": {
            "byteLength": 6832,
            "type": "arraybuffer",
            "uri": "data:application/octet-stream;base64,"
        }
    },
    "images": {
        "ID7": {
            "name": "ID7",
            "uri": "%E5%B7%A5%E5%8E%824/__auto_482.jpg"
        }
    },
    "materials": {
        "ID43": {
            "name": "edge_color000255",
            "technique": "technique0",
            "values": {}
        },
        "ID6": {
            "name": "__auto_482",
            "technique": "technique1",
            "values": {
                "diffuse": "texture_ID7"
            }
        }
    },
    "meshes": {
        "ID17": {
            "name": "ID17",
            "primitives": [
                {
                    "attributes": {
                        "NORMAL": "accessor_52",
                        "POSITION": "accessor_50",
                        "TEXCOORD_0": "accessor_54"
                    },
                    "indices": "accessor_48",
                    "material": "ID6",
                    "mode": 4
                }
            ]
        },
        "ID25": {
            "name": "ID25",
            "primitives": [
                {
                    "attributes": {
                        "NORMAL": "accessor_79",
                        "POSITION": "accessor_77",
                        "TEXCOORD_0": "accessor_81"
                    },
                    "indices": "accessor_75",
                    "material": "ID6",
                    "mode": 4
                }
            ]
        },
        "ID33": {
            "name": "ID33",
            "primitives": [
                {
                    "attributes": {
                        "NORMAL": "accessor_106",
                        "POSITION": "accessor_104",
                        "TEXCOORD_0": "accessor_108"
                    },
                    "indices": "accessor_102",
                    "material": "ID6",
                    "mode": 4
                }
            ]
        },
        "ID4": {
            "name": "ID4",
            "primitives": [
                {
                    "attributes": {
                        "NORMAL": "accessor_25",
                        "POSITION": "accessor_23",
                        "TEXCOORD_0": "accessor_27"
                    },
                    "indices": "accessor_21",
                    "material": "ID6",
                    "mode": 4
                }
            ]
        },
        "ID41": {
            "name": "ID41",
            "primitives": [
                {
                    "attributes": {
                        "POSITION": "accessor_120"
                    },
                    "indices": "accessor_118",
                    "material": "ID43",
                    "mode": 1
                }
            ]
        },
        "ID47": {
            "name": "ID47",
            "primitives": [
                {
                    "attributes": {
                        "POSITION": "accessor_132"
                    },
                    "indices": "accessor_130",
                    "material": "ID43",
                    "mode": 1
                }
            ]
        },
        "ID51": {
            "name": "ID51",
            "primitives": [
                {
                    "attributes": {
                        "POSITION": "accessor_144"
                    },
                    "indices": "accessor_142",
                    "material": "ID43",
                    "mode": 1
                }
            ]
        },
        "ID55": {
            "name": "ID55",
            "primitives": [
                {
                    "attributes": {
                        "POSITION": "accessor_156"
                    },
                    "indices": "accessor_154",
                    "material": "ID43",
                    "mode": 1
                }
            ]
        }
    },
    "nodes": {
        "ID2": {
            "children": [
                "ID3"
            ],
            "matrix": [
                1,
                0,
                0,
                0,
                0,
                1,
                0,
                0,
                0,
                0,
                1,
                0,
                0,
                0,
                0,
                1
            ],
            "name": "instance_0"
        },
        "ID3": {
            "children": [],
            "matrix": [
                1,
                0,
                0,
                0,
                0,
                1,
                0,
                0,
                0,
                0,
                1,
                0,
                0,
                0,
                0,
                1
            ],
            "meshes": [
                "ID4",
                "ID17",
                "ID25",
                "ID33",
                "ID41",
                "ID47",
                "ID51",
                "ID55"
            ],
            "name": "_________________2_"
        },
        "node_0": {
            "children": [
                "ID2"
            ],
            "matrix": [
                1,
                0,
                0,
                0,
                0,
                1,
                0,
                0,
                0,
                0,
                1,
                0,
                0,
                0,
                0,
                1
            ],
            "name": "SketchUp"
        },
        "node_3": {
            "children": [
                "node_0"
            ],
            "matrix": [
                1,
                0,
                0,
                0,
                0,
                0,
                -1,
                0,
                0,
                1,
                0,
                0,
                0,
                0,
                0,
                1
            ],
            "name": "Y_UP_Transform"
        }
    },
    "programs": {
        "program_0": {
            "attributes": [
                "a_position"
            ],
            "fragmentShader": "工厂40FS",
            "vertexShader": "工厂40VS"
        },
        "program_1": {
            "attributes": [
                "a_normal",
                "a_position",
                "a_texcoord0"
            ],
            "fragmentShader": "工厂41FS",
            "vertexShader": "工厂41VS"
        }
    },
    "samplers": {
        "sampler_0": {
            "magFilter": 9729,
            "minFilter": 9729,
            "wrapS": 10497,
            "wrapT": 10497
        }
    },
    "scene": "defaultScene",
    "scenes": {
        "defaultScene": {
            "nodes": [
                "node_3"
            ]
        }
    },
    "shaders": {
        "工厂40FS": {
            "type": 35632,
            "uri": "data:text/plain;base64,"
        },
        "工厂40VS": {
            "type": 35633,
            "uri": "data:text/plain;base64,"
        },
        "工厂41FS": {
            "type": 35632,
            "uri": "data:text/plain;base64,"
        },
        "工厂41VS": {
            "type": 35633,
            "uri": "data:text/plain;base64,"
        }
    },
    "skins": {},
    "techniques": {
        "technique0": {
            "attributes": {
                "a_position": "position"
            },
            "parameters": {
                "modelViewMatrix": {
                    "semantic": "MODELVIEW",
                    "type": 35676
                },
                "position": {
                    "semantic": "POSITION",
                    "type": 35665
                },
                "projectionMatrix": {
                    "semantic": "PROJECTION",
                    "type": 35676
                }
            },
            "program": "program_0",
            "states": {
                "enable": [
                    2929,
                    2884
                ]
            },
            "uniforms": {
                "u_modelViewMatrix": "modelViewMatrix",
                "u_projectionMatrix": "projectionMatrix"
            }
        },
        "technique1": {
            "attributes": {
                "a_normal": "normal",
                "a_position": "position",
                "a_texcoord0": "texcoord0"
            },
            "parameters": {
                "diffuse": {
                    "type": 35678
                },
                "modelViewMatrix": {
                    "semantic": "MODELVIEW",
                    "type": 35676
                },
                "normal": {
                    "semantic": "NORMAL",
                    "type": 35665
                },
                "normalMatrix": {
                    "semantic": "MODELVIEWINVERSETRANSPOSE",
                    "type": 35675
                },
                "position": {
                    "semantic": "POSITION",
                    "type": 35665
                },
                "projectionMatrix": {
                    "semantic": "PROJECTION",
                    "type": 35676
                },
                "texcoord0": {
                    "semantic": "TEXCOORD_0",
                    "type": 35664
                }
            },
            "program": "program_1",
            "states": {
                "enable": [
                    2929,
                    2884
                ]
            },
            "uniforms": {
                "u_diffuse": "diffuse",
                "u_modelViewMatrix": "modelViewMatrix",
                "u_normalMatrix": "normalMatrix",
                "u_projectionMatrix": "projectionMatrix"
            }
        }
    },
    "textures": {
        "texture_ID7": {
            "format": 6408,
            "internalFormat": 6408,
            "sampler": "sampler_0",
            "source": "ID7",
            "target": 3553,
            "type": 5121
        }
    }
}