{
    "accessors": {
        "accessor_28": {
            "bufferView": "bufferView_91",
            "byteOffset": 588,
            "byteStride": 0,
            "componentType": 5123,
            "count": 12,
            "type": "SCALAR"
        },
        "accessor_31": {
            "bufferView": "bufferView_91",
            "byteOffset": 612,
            "byteStride": 0,
            "componentType": 5123,
            "count": 12,
            "type": "SCALAR"
        },
        "accessor_33": {
            "bufferView": "bufferView_92",
            "byteOffset": 5824,
            "byteStride": 12,
            "componentType": 5126,
            "count": 16,
            "max": [
                0.147829,
                -3.5037,
                -8.8794e-20
            ],
            "min": [
                -46.2028,
                -58.1219,
                -1.77588e-19
            ],
            "type": "VEC3"
        },
        "accessor_35": {
            "bufferView": "bufferView_92",
            "byteOffset": 6016,
            "byteStride": 12,
            "componentType": 5126,
            "count": 16,
            "max": [
                2.92342e-14,
                4.74781e-15,
                1
            ],
            "min": [
                -2.92342e-14,
                -4.74781e-15,
                -1
            ],
            "type": "VEC3"
        },
        "accessor_56": {
            "bufferView": "bufferView_91",
            "byteOffset": 0,
            "byteStride": 0,
            "componentType": 5123,
            "count": 24,
            "type": "SCALAR"
        },
        "accessor_58": {
            "bufferView": "bufferView_92",
            "byteOffset": 0,
            "byteStride": 12,
            "componentType": 5126,
            "count": 16,
            "max": [
                0.147829,
                -3.5037,
                120
            ],
            "min": [
                -46.2028,
                -58.1219,
                120
            ],
            "type": "VEC3"
        },
        "accessor_60": {
            "bufferView": "bufferView_92",
            "byteOffset": 192,
            "byteStride": 12,
            "componentType": 5126,
            "count": 16,
            "max": [
                -0,
                -0,
                1
            ],
            "min": [
                -0,
                -0,
                -1
            ],
            "type": "VEC3"
        },
        "accessor_62": {
            "bufferView": "bufferView_92",
            "byteOffset": 384,
            "byteStride": 8,
            "componentType": 5126,
            "count": 16,
            "max": [
                148.806,
                2043.13
            ],
            "min": [
                -5.82004,
                1.01373
            ],
            "type": "VEC2"
        },
        "accessor_83": {
            "bufferView": "bufferView_91",
            "byteOffset": 48,
            "byteStride": 0,
            "componentType": 5123,
            "count": 270,
            "type": "SCALAR"
        },
        "accessor_85": {
            "bufferView": "bufferView_92",
            "byteOffset": 512,
            "byteStride": 12,
            "componentType": 5126,
            "count": 166,
            "max": [
                0.147829,
                -3.5037,
                120
            ],
            "min": [
                -46.2028,
                -58.1219,
                -1.77588e-19
            ],
            "type": "VEC3"
        },
        "accessor_87": {
            "bufferView": "bufferView_92",
            "byteOffset": 2504,
            "byteStride": 12,
            "componentType": 5126,
            "count": 166,
            "max": [
                0.987068,
                0.987067,
                1
            ],
            "min": [
                -0.987068,
                -0.987067,
                -1
            ],
            "type": "VEC3"
        },
        "accessor_89": {
            "bufferView": "bufferView_92",
            "byteOffset": 4496,
            "byteStride": 8,
            "componentType": 5126,
            "count": 166,
            "max": [
                1061.22,
                262.01
            ],
            "min": [
                -2.499,
                -2.02656e-06
            ],
            "type": "VEC2"
        }
    },
    "animations": {},
    "asset": {
        "generator": "collada2gltf@GITDIR-NOTFOUND",
        "premultipliedAlpha": true,
        "profile": {
            "api": "WebGL",
            "version": "1.0.2"
        },
        "version": 1
    },
    "bufferViews": {
        "bufferView_91": {
            "buffer": "深圳万科富春东方大厦",
            "byteLength": 636,
            "byteOffset": 0,
            "target": 34963
        },
        "bufferView_92": {
            "buffer": "深圳万科富春东方大厦",
            "byteLength": 6208,
            "byteOffset": 636,
            "target": 34962
        }
    },
    "buffers": {
        "深圳万科富春东方大厦": {
            "byteLength": 6844,
            "type": "arraybuffer",
            "uri": "data:application/octet-stream;base64,"
        }
    },
    "images": {
        "ID17": {
            "name": "ID17",
            "uri": "%E6%B7%B1%E5%9C%B3%E4%B8%87%E7%A7%91%E5%AF%8C%E6%98%A5%E4%B8%9C%E6%96%B9%E5%A4%A7%E5%8E%A6/__auto_288.jpg"
        },
        "ID30": {
            "name": "ID30",
            "uri": "%E6%B7%B1%E5%9C%B3%E4%B8%87%E7%A7%91%E5%AF%8C%E6%98%A5%E4%B8%9C%E6%96%B9%E5%A4%A7%E5%8E%A6/__auto_289.jpg"
        }
    },
    "materials": {
        "ID11": {
            "name": "__auto_21",
            "technique": "technique0",
            "values": {
                "diffuse": [
                    0.666667,
                    0.690196,
                    0.8,
                    1
                ]
            }
        },
        "ID16": {
            "name": "__auto_288",
            "technique": "technique1",
            "values": {
                "diffuse": "texture_ID17"
            }
        },
        "ID29": {
            "name": "__auto_289",
            "technique": "technique1",
            "values": {
                "diffuse": "texture_ID30"
            }
        },
        "ID6": {
            "name": "__auto_20",
            "technique": "technique0",
            "values": {
                "diffuse": [
                    1,
                    1,
                    1,
                    1
                ]
            }
        }
    },
    "meshes": {
        "ID14": {
            "name": "ID14",
            "primitives": [
                {
                    "attributes": {
                        "NORMAL": "accessor_60",
                        "POSITION": "accessor_58",
                        "TEXCOORD_0": "accessor_62"
                    },
                    "indices": "accessor_56",
                    "material": "ID16",
                    "mode": 4
                }
            ]
        },
        "ID27": {
            "name": "ID27",
            "primitives": [
                {
                    "attributes": {
                        "NORMAL": "accessor_87",
                        "POSITION": "accessor_85",
                        "TEXCOORD_0": "accessor_89"
                    },
                    "indices": "accessor_83",
                    "material": "ID29",
                    "mode": 4
                }
            ]
        },
        "ID4": {
            "name": "ID4",
            "primitives": [
                {
                    "attributes": {
                        "NORMAL": "accessor_35",
                        "POSITION": "accessor_33"
                    },
                    "indices": "accessor_28",
                    "material": "ID6",
                    "mode": 4
                },
                {
                    "attributes": {
                        "NORMAL": "accessor_35",
                        "POSITION": "accessor_33"
                    },
                    "indices": "accessor_31",
                    "material": "ID11",
                    "mode": 4
                }
            ]
        }
    },
    "nodes": {
        "ID2": {
            "children": [
                "ID3"
            ],
            "matrix": [
                1,
                0,
                0,
                0,
                0,
                1,
                0,
                0,
                0,
                0,
                1,
                0,
                0,
                0,
                0,
                1
            ],
            "name": "instance_0"
        },
        "ID3": {
            "children": [],
            "matrix": [
                1,
                0,
                0,
                0,
                0,
                1,
                0,
                0,
                0,
                0,
                1,
                0,
                0,
                0,
                0,
                1
            ],
            "meshes": [
                "ID4",
                "ID14",
                "ID27"
            ],
            "name": "skp892E"
        },
        "node_0": {
            "children": [
                "ID2"
            ],
            "matrix": [
                1,
                0,
                0,
                0,
                0,
                1,
                0,
                0,
                0,
                0,
                1,
                0,
                0,
                0,
                0,
                1
            ],
            "name": "SketchUp"
        },
        "node_3": {
            "children": [
                "node_0"
            ],
            "matrix": [
                1,
                0,
                0,
                0,
                0,
                0,
                -1,
                0,
                0,
                1,
                0,
                0,
                0,
                0,
                0,
                1
            ],
            "name": "Y_UP_Transform"
        }
    },
    "programs": {
        "program_0": {
            "attributes": [
                "a_normal",
                "a_position"
            ],
            "fragmentShader": "深圳万科富春东方大厦0FS",
            "vertexShader": "深圳万科富春东方大厦0VS"
        },
        "program_1": {
            "attributes": [
                "a_normal",
                "a_position",
                "a_texcoord0"
            ],
            "fragmentShader": "深圳万科富春东方大厦1FS",
            "vertexShader": "深圳万科富春东方大厦1VS"
        }
    },
    "samplers": {
        "sampler_0": {
            "magFilter": 9729,
            "minFilter": 9729,
            "wrapS": 10497,
            "wrapT": 10497
        }
    },
    "scene": "defaultScene",
    "scenes": {
        "defaultScene": {
            "nodes": [
                "node_3"
            ]
        }
    },
    "shaders": {
        "深圳万科富春东方大厦0FS": {
            "type": 35632,
            "uri": "data:text/plain;base64,"
        },
        "深圳万科富春东方大厦0VS": {
            "type": 35633,
            "uri": "data:text/plain;base64,"
        },
        "深圳万科富春东方大厦1FS": {
            "type": 35632,
            "uri": "data:text/plain;base64,"
        },
        "深圳万科富春东方大厦1VS": {
            "type": 35633,
            "uri": "data:text/plain;base64,"
        }
    },
    "skins": {},
    "techniques": {
        "technique0": {
            "attributes": {
                "a_normal": "normal",
                "a_position": "position"
            },
            "parameters": {
                "diffuse": {
                    "type": 35666
                },
                "modelViewMatrix": {
                    "semantic": "MODELVIEW",
                    "type": 35676
                },
                "normal": {
                    "semantic": "NORMAL",
                    "type": 35665
                },
                "normalMatrix": {
                    "semantic": "MODELVIEWINVERSETRANSPOSE",
                    "type": 35675
                },
                "position": {
                    "semantic": "POSITION",
                    "type": 35665
                },
                "projectionMatrix": {
                    "semantic": "PROJECTION",
                    "type": 35676
                }
            },
            "program": "program_0",
            "states": {
                "enable": [
                    2929,
                    2884
                ]
            },
            "uniforms": {
                "u_diffuse": "diffuse",
                "u_modelViewMatrix": "modelViewMatrix",
                "u_normalMatrix": "normalMatrix",
                "u_projectionMatrix": "projectionMatrix"
            }
        },
        "technique1": {
            "attributes": {
                "a_normal": "normal",
                "a_position": "position",
                "a_texcoord0": "texcoord0"
            },
            "parameters": {
                "diffuse": {
                    "type": 35678
                },
                "modelViewMatrix": {
                    "semantic": "MODELVIEW",
                    "type": 35676
                },
                "normal": {
                    "semantic": "NORMAL",
                    "type": 35665
                },
                "normalMatrix": {
                    "semantic": "MODELVIEWINVERSETRANSPOSE",
                    "type": 35675
                },
                "position": {
                    "semantic": "POSITION",
                    "type": 35665
                },
                "projectionMatrix": {
                    "semantic": "PROJECTION",
                    "type": 35676
                },
                "texcoord0": {
                    "semantic": "TEXCOORD_0",
                    "type": 35664
                }
            },
            "program": "program_1",
            "states": {
                "enable": [
                    2929,
                    2884
                ]
            },
            "uniforms": {
                "u_diffuse": "diffuse",
                "u_modelViewMatrix": "modelViewMatrix",
                "u_normalMatrix": "normalMatrix",
                "u_projectionMatrix": "projectionMatrix"
            }
        }
    },
    "textures": {
        "texture_ID17": {
            "format": 6408,
            "internalFormat": 6408,
            "sampler": "sampler_0",
            "source": "ID17",
            "target": 3553,
            "type": 5121
        },
        "texture_ID30": {
            "format": 6408,
            "internalFormat": 6408,
            "sampler": "sampler_0",
            "source": "ID30",
            "target": 3553,
            "type": 5121
        }
    }
}